<svg xmlns="http://www.w3.org/2000/svg" width="680" height="360" viewBox="0 0 680 360" role="img">
  <title>Mockups de link na bio profissional</title>
  <desc>Dois paineis de mini-pagina de link na bio com perfil, lista de links e assistente de IA.</desc>

  <rect x="100" y="28" width="200" height="304" rx="28" fill="#1B2A4A"/>
  <circle cx="200" cy="78" r="28" fill="#5C8FD6" opacity="0.85"/>
  <circle cx="200" cy="78" r="12" fill="#CFE0F7" opacity="0.9"/>
  <rect x="150" y="118" width="100" height="10" rx="3" fill="#CFE0F7" opacity="0.85"/>
  <rect x="165" y="134" width="70" height="7" rx="2" fill="#9EC0EC" opacity="0.55"/>
  <rect x="124" y="160" width="152" height="32" rx="10" fill="#2C4877" opacity="0.85"/>
  <rect x="140" y="171" width="90" height="8" rx="3" fill="#CFE0F7" opacity="0.7"/>
  <rect x="124" y="200" width="152" height="32" rx="10" fill="#2C4877" opacity="0.85"/>
  <rect x="140" y="211" width="100" height="8" rx="3" fill="#CFE0F7" opacity="0.7"/>
  <rect x="124" y="240" width="152" height="32" rx="10" fill="#3B6FB8" opacity="0.75"/>
  <rect x="140" y="251" width="80" height="8" rx="3" fill="#CFE0F7" opacity="0.85"/>
  <rect x="136" y="286" width="128" height="26" rx="13" fill="#5C8FD6" opacity="0.9"/>
  <circle cx="156" cy="299" r="7" fill="#0E1830" opacity="0.55"/>
  <rect x="170" y="294" width="72" height="8" rx="3" fill="#0E1830" opacity="0.55"/>

  <rect x="380" y="28" width="200" height="304" rx="28" fill="#0E0A20"/>
  <circle cx="480" cy="78" r="28" fill="#7F77DD" opacity="0.85"/>
  <circle cx="480" cy="78" r="12" fill="#CECBF6" opacity="0.9"/>
  <rect x="430" y="118" width="100" height="10" rx="3" fill="#CECBF6" opacity="0.85"/>
  <rect x="445" y="134" width="70" height="7" rx="2" fill="#AFA9EC" opacity="0.55"/>
  <rect x="404" y="160" width="152" height="32" rx="10" fill="#26215C" opacity="0.9"/>
  <rect x="420" y="171" width="90" height="8" rx="3" fill="#CECBF6" opacity="0.7"/>
  <rect x="404" y="200" width="152" height="32" rx="10" fill="#26215C" opacity="0.9"/>
  <rect x="420" y="211" width="100" height="8" rx="3" fill="#CECBF6" opacity="0.7"/>
  <rect x="404" y="240" width="152" height="32" rx="10" fill="#3C3489" opacity="0.8"/>
  <rect x="420" y="251" width="80" height="8" rx="3" fill="#CECBF6" opacity="0.85"/>
  <rect x="416" y="286" width="128" height="26" rx="13" fill="#7F77DD" opacity="0.9"/>
  <circle cx="436" cy="299" r="7" fill="#0E0A20" opacity="0.65"/>
  <rect x="450" y="294" width="72" height="8" rx="3" fill="#0E0A20" opacity="0.65"/>
</svg>
